<svg width="34" height="37" viewBox="0 0 34 37" fill="none" xmlns="http://www.w3.org/2000/svg">
<path d="M17.5203 16.9602V17.4602L18.0203 17.4602C18.7608 17.4602 19.483 17.6897 20.0876 18.1172C20.6922 18.5447 21.1494 19.1491 21.3963 19.8472C21.419 19.9115 21.4288 19.9797 21.4252 20.0478C21.4216 20.116 21.4045 20.1828 21.3751 20.2444C21.3456 20.3061 21.3043 20.3613 21.2535 20.4069C21.2027 20.4526 21.1434 20.4878 21.079 20.5105C21.0146 20.5333 20.9464 20.5431 20.8782 20.5395C20.81 20.5358 20.7432 20.5188 20.6816 20.4893C20.5571 20.4298 20.4614 20.3234 20.4155 20.1933L20.4154 20.193C20.2402 19.6978 19.9158 19.2691 19.4868 18.9659C19.0579 18.6627 18.5455 18.5 18.0202 18.5001L17.5203 18.5003V19.0001V23.0801V23.5801H18.0203C18.9698 23.5801 19.8804 23.9573 20.5517 24.6286C21.2231 25.3 21.6003 26.2106 21.6003 27.1601C21.6003 28.1095 21.2231 29.0201 20.5517 29.6915C19.8804 30.3628 18.9698 30.74 18.0203 30.74H17.5203V31.24V31.76H16.4803V31.24V30.74L15.9804 30.74C15.2399 30.74 14.5176 30.5104 13.913 30.083C13.3084 29.6555 12.8512 29.0511 12.6043 28.353L12.6045 28.3529L12.5995 28.3398C12.5745 28.2749 12.5627 28.2057 12.5649 28.1362C12.5671 28.0667 12.5833 27.9984 12.6123 27.9352C12.6414 27.8721 12.6829 27.8154 12.7342 27.7686C12.7856 27.7217 12.8459 27.6856 12.9114 27.6625C12.977 27.6393 13.0465 27.6295 13.1159 27.6337C13.1853 27.6379 13.2532 27.6559 13.3155 27.6868C13.3778 27.7177 13.4333 27.7607 13.4786 27.8134C13.524 27.8661 13.5584 27.9273 13.5797 27.9935L13.5819 28.0006L13.5844 28.0076C13.9345 28.9944 14.8747 29.7 15.9803 29.7H16.4803V29.2V25.1201V24.6201H15.9803C15.0309 24.6201 14.1203 24.2429 13.4489 23.5715C12.7776 22.9002 12.4004 21.9896 12.4004 21.0401C12.4004 20.0907 12.7776 19.1801 13.4489 18.5087C14.1203 17.8373 15.0309 17.4602 15.9803 17.4602H16.4803V16.9602V16.4402H17.5203V16.9602ZM16.4803 19.0001V18.5001H15.9803C15.3067 18.5001 14.6606 18.7678 14.1843 19.2441C13.708 19.7204 13.4404 20.3665 13.4404 21.0401C13.4404 21.7138 13.708 22.3598 14.1843 22.8362C14.6606 23.3125 15.3067 23.5801 15.9803 23.5801H16.4803V23.0801V19.0001ZM17.5203 29.2V29.7H18.0203C18.694 29.7 19.34 29.4324 19.8164 28.9561C20.2927 28.4798 20.5603 27.8337 20.5603 27.1601C20.5603 26.4864 20.2927 25.8404 19.8164 25.364C19.34 24.8877 18.694 24.6201 18.0203 24.6201H17.5203V25.1201V29.2Z" fill="#FAFAFA" stroke="#FAFAFA"/>
<path d="M27.6767 4.76429L27.0916 5.61971L24.0755 10.0291L23.6628 9.74683L23.8302 10.218C19.5237 11.7487 14.442 11.7487 10.1363 10.2158L9.98224 10.161L9.89036 10.0257L7.93199 7.14221L7.18585 6.04359L8.47126 6.37733C9.0456 6.52645 9.62503 6.65522 10.2085 6.76338C12.5278 7.19114 14.992 7.28156 17.1845 6.64825L27.6767 4.76429ZM27.6767 4.76429L26.643 4.83872M27.6767 4.76429L26.643 4.83872M26.643 4.83872C23.7945 5.04381 20.4218 5.71099 17.1848 6.64817L26.643 4.83872ZM24.9832 10.8936L25.2138 11.1367C27.2982 13.334 29.0418 15.8309 30.3868 18.5446L30.3877 18.5465C31.7889 21.4048 32.5736 24.3035 32.4455 26.8405L32.4455 26.8406C32.3203 29.3143 31.3359 31.4619 29.0952 33.0457L29.0951 33.0458C26.7872 34.6765 22.9862 35.8169 17.039 35.8169C11.0869 35.8169 7.27037 34.6963 4.94293 33.0852L4.94271 33.0851C2.68679 31.5217 1.69052 29.4026 1.55107 26.9582L24.9832 10.8936ZM24.9832 10.8936L24.6707 11.0145M24.9832 10.8936L24.6707 11.0145M24.6707 11.0145C19.8755 12.8688 14.1014 12.8688 9.30607 11.0164L9.1259 11.4829L8.75936 11.1428C6.76278 13.2948 4.90489 15.9353 3.57103 18.684L3.57099 18.684M24.6707 11.0145L3.57099 18.684M3.57099 18.684C2.17555 21.5609 1.40681 24.4461 1.55106 26.958L3.57099 18.684ZM25.6715 9.53797L25.4399 9.87661L25.7268 10.1699C27.8626 12.3534 29.8791 15.141 31.3234 18.0891C32.77 21.0418 33.6252 24.1198 33.4851 26.8934C33.3459 29.646 32.2288 32.1058 29.6967 33.8947C27.1426 35.6991 23.0973 36.8569 17.04 36.8569C10.9814 36.8569 6.92305 35.7198 4.35236 33.9396C1.80446 32.1752 0.669876 29.7462 0.513918 27.0171C0.356709 24.266 1.19619 21.1994 2.63691 18.2303C4.0752 15.2661 6.09561 12.4348 8.25312 10.1647L8.53079 9.87258L8.30423 9.53922L4.85344 4.46177C5.03912 4.35142 5.24627 4.23429 5.47381 4.11308L5.47381 4.11308L5.47553 4.11215C5.68577 3.9991 5.91244 3.88277 6.15558 3.76419L6.37128 3.65899C8.8465 2.47922 12.7713 1.14038 17.04 1.14038C21.3421 1.14038 25.2647 2.49997 27.71 3.68707L27.8475 3.75379C27.848 3.75406 27.8486 3.75433 27.8491 3.7546C28.3561 4.0054 28.7921 4.24498 29.1466 4.45807L25.6715 9.53797ZM10.3955 5.74033L10.396 5.74042C12.6303 6.15194 14.9151 6.22176 16.8945 5.64837L16.8953 5.64815C19.0625 5.01678 21.2668 4.52023 23.4954 4.16135L23.5601 3.18894C21.648 2.61323 19.4036 2.18036 17.039 2.18036C13.4377 2.18036 10.0925 3.18336 7.75756 4.1744L7.95292 4.63465L7.81034 5.1139C8.64138 5.36113 9.51135 5.57663 10.3955 5.74033Z" fill="#FAFAFA" stroke="#FAFAFA"/>
</svg>
