<svg width="80" height="80" viewBox="0 0 80 80" fill="none" xmlns="http://www.w3.org/2000/svg">
<path opacity="0.3" d="M80 40C80 62.0914 62.0914 80 40 80C17.9086 80 0 62.0914 0 40C0 17.9086 17.9086 0 40 0C62.0914 0 80 17.9086 80 40ZM10.9071 40C10.9071 56.0675 23.9325 69.0929 40 69.0929C56.0675 69.0929 69.0929 56.0675 69.0929 40C69.0929 23.9325 56.0675 10.9071 40 10.9071C23.9325 10.9071 10.9071 23.9325 10.9071 40Z" fill="white"/>
<circle cx="40" cy="40" r="29" fill="white"/>
<g clip-path="url(#clip0_1010_2003)">
<path d="M42 61C52.4934 61 61 52.4934 61 42C61 31.5066 52.4934 23 42 23C31.5066 23 23 31.5066 23 42C23 52.4934 31.5066 61 42 61Z" stroke="black" stroke-width="2" stroke-linecap="round" stroke-linejoin="round"/>
<path d="M47.6 36.0017C47.2377 35.3734 46.7113 34.8554 46.0772 34.5032C45.443 34.151 44.725 33.9779 44 34.0023H40C38.9391 34.0023 37.9217 34.4236 37.1716 35.1735C36.4214 35.9234 36 36.9406 36 38.0011C36 39.0617 36.4214 40.0788 37.1716 40.8288C37.9217 41.5787 38.9391 42 40 42H44C45.0609 42 46.0783 42.4213 46.8284 43.1712C47.5786 43.9212 48 44.9383 48 45.9989C48 47.0594 47.5786 48.0766 46.8284 48.8265C46.0783 49.5764 45.0609 49.9977 44 49.9977H40C39.275 50.0221 38.557 49.849 37.9228 49.4968C37.2887 49.1446 36.7623 48.6266 36.4 47.9983" stroke="black" stroke-width="2.75" stroke-linecap="round" stroke-linejoin="round"/>
<path d="M42 29V33.3333M42 50.6667V55" stroke="black" stroke-width="2.75" stroke-linecap="round" stroke-linejoin="round"/>
</g>
<defs>
<clipPath id="clip0_1010_2003">
<rect width="40" height="40" fill="white" transform="translate(20 20)"/>
</clipPath>
</defs>
</svg>
